<svg viewBox="0 0 374 376" fill="none" xmlns="http://www.w3.org/2000/svg">
    <path
        d="M67.1713 27.5684L14.8287 27.5684C13.1103 27.5711 11.5856 29.8048 12.7067 31.1028L157.002 197.927C157.796 198.846 159.026 198.84 159.832 197.927L186.003 167.531C186.667 166.779 187.362 166.169 186.71 165.41L69.2933 28.2753C68.9126 27.8323 67.7564 27.5675 67.1713 27.5684Z"
        fill="#0D6EFD" />
    <path
        d="M300.977 347.686L353.32 347.686C355.027 347.693 355.853 346.156 354.734 344.859L236.415 205.414C235.621 204.494 234.383 204.509 233.585 205.414L207.414 235.81C206.759 236.552 206.058 237.173 206.707 237.93L298.855 346.98C299.236 347.424 300.394 347.684 300.977 347.686Z"
        fill="#0D6EFD" />
    <path
        d="M297.829 27.5684C297.249 27.57 296.087 27.8365 295.707 28.2753L25.506 340.717C24.3836 342.012 25.2112 343.549 26.9206 343.544H79.2632C79.8424 343.543 81.0049 343.276 81.3852 342.838L351.586 30.3959C352.708 29.101 351.881 27.5635 350.171 27.5684L297.829 27.5684Z"
        fill="#0D6EFD" />
    <path
        d="M353.783 28.9921C354.923 27.7018 353.73 25.8556 352.005 25.8554L97.3312 25.4232C95.615 25.4229 94.9214 28.0457 96.0442 29.3403L130.268 68.9191C130.649 69.3581 131.608 70.061 132.19 70.0611L316.686 70.4177C317.261 70.4178 317.375 69.923 317.755 69.4926L353.783 28.9921Z"
        fill="#0D6EFD" />
    <path
        d="M234.027 304.249C233.647 303.812 232.685 303.107 232.105 303.107L59.5807 303.546C59.0069 303.546 58.9625 303.045 58.5833 303.474L22.5559 343.974C21.4189 345.259 22.6132 347.111 24.3334 347.111L267.036 346.748C268.748 346.748 269.371 345.117 268.251 343.828L234.027 304.249Z"
        fill="#0D6EFD" />
</svg>